<svg width="15" height="16" viewBox="0 0 15 16" fill="none" xmlns="http://www.w3.org/2000/svg">
<mask id="mask0_1294_397" style="mask-type:alpha" maskUnits="userSpaceOnUse" x="0" y="0" width="15" height="16">
<rect y="0.5" width="15" height="15" fill="#D9D9D9"/>
</mask>
<g mask="url(#mask0_1294_397)">
<path d="M7.53125 13C6.13542 13 4.94792 12.5156 3.96875 11.5469C2.98958 10.5781 2.5 9.39583 2.5 8V7.89062L1.5 8.89062L0.625 8.01563L3.125 5.51562L5.625 8.01563L4.75 8.89062L3.75 7.89062V8C3.75 9.04167 4.11719 9.92708 4.85156 10.6562C5.58594 11.3854 6.47917 11.75 7.53125 11.75C7.80208 11.75 8.06771 11.7188 8.32812 11.6562C8.58854 11.5938 8.84375 11.5 9.09375 11.375L10.0312 12.3125C9.63542 12.5417 9.22917 12.7135 8.8125 12.8281C8.39583 12.9427 7.96875 13 7.53125 13ZM11.875 10.4844L9.375 7.98438L10.25 7.10938L11.25 8.10938V8C11.25 6.95833 10.8828 6.07292 10.1484 5.34375C9.41406 4.61458 8.52083 4.25 7.46875 4.25C7.19792 4.25 6.93229 4.28125 6.67188 4.34375C6.41146 4.40625 6.15625 4.5 5.90625 4.625L4.96875 3.6875C5.36458 3.45833 5.77083 3.28646 6.1875 3.17188C6.60417 3.05729 7.03125 3 7.46875 3C8.86458 3 10.0521 3.48438 11.0312 4.45312C12.0104 5.42188 12.5 6.60417 12.5 8V8.10938L13.5 7.10938L14.375 7.98438L11.875 10.4844Z" fill="#A1A1AA"/>
</g>
</svg>
