<svg width="16" height="16" viewBox="0 0 16 16" fill="none" xmlns="http://www.w3.org/2000/svg">
<path fill-rule="evenodd" clip-rule="evenodd" d="M6.80566 8C6.80566 7.34033 7.34044 6.80556 8.00011 6.80556C8.65978 6.80556 9.19455 7.34033 9.19455 8C9.19455 8.65968 8.65978 9.19445 8.00011 9.19445C7.34044 9.19445 6.80566 8.65968 6.80566 8Z" fill="#A1A1AA"/>
<path fill-rule="evenodd" clip-rule="evenodd" d="M1.69434 8C1.69434 7.34033 2.22911 6.80556 2.88878 6.80556C3.54845 6.80556 4.08322 7.34033 4.08322 8C4.08322 8.65968 3.54845 9.19445 2.88878 9.19445C2.22911 9.19445 1.69434 8.65968 1.69434 8Z" fill="#A1A1AA"/>
<path fill-rule="evenodd" clip-rule="evenodd" d="M11.9167 8C11.9167 7.34033 12.4515 6.80556 13.1112 6.80556C13.7709 6.80556 14.3056 7.34033 14.3056 8C14.3056 8.65968 13.7709 9.19445 13.1112 9.19445C12.4515 9.19445 11.9167 8.65968 11.9167 8Z" fill="#A1A1AA"/>
</svg>
