<svg width="28" height="28" viewBox="0 0 28 28" fill="none" xmlns="http://www.w3.org/2000/svg">
<mask id="mask0_1_3064" style="mask-type:alpha" maskUnits="userSpaceOnUse" x="0" y="0" width="28" height="28">
<rect width="28" height="28" fill="#D9D9D9"/>
</mask>
<g mask="url(#mask0_1_3064)">
<path d="M14.0002 20.1542L9.15851 23.0708C8.94462 23.2069 8.72101 23.2653 8.48768 23.2458C8.25435 23.2264 8.05018 23.1486 7.87518 23.0125C7.70018 22.8764 7.56407 22.7063 7.46685 22.5021C7.36962 22.2979 7.35018 22.0694 7.40851 21.8167L8.69185 16.3042L4.40435 12.6C4.2099 12.425 4.08837 12.2257 4.03976 12.0021C3.99115 11.7785 4.00574 11.5597 4.08351 11.3458C4.16129 11.1319 4.27796 10.9569 4.43351 10.8208C4.58907 10.6847 4.80296 10.5972 5.07518 10.5583L10.7335 10.0625L12.921 4.87084C13.0182 4.6375 13.1689 4.4625 13.3731 4.34584C13.5773 4.22917 13.7863 4.17084 14.0002 4.17084C14.2141 4.17084 14.4231 4.22917 14.6273 4.34584C14.8314 4.4625 14.9821 4.6375 15.0793 4.87084L17.2668 10.0625L22.9252 10.5583C23.1974 10.5972 23.4113 10.6847 23.5668 10.8208C23.7224 10.9569 23.8391 11.1319 23.9168 11.3458C23.9946 11.5597 24.0092 11.7785 23.9606 12.0021C23.912 12.2257 23.7905 12.425 23.596 12.6L19.3085 16.3042L20.5918 21.8167C20.6502 22.0694 20.6307 22.2979 20.5335 22.5021C20.4363 22.7063 20.3002 22.8764 20.1252 23.0125C19.9502 23.1486 19.746 23.2264 19.5127 23.2458C19.2793 23.2653 19.0557 23.2069 18.8418 23.0708L14.0002 20.1542Z" fill="#A9E851"/>
</g>
</svg>
